<svg width="700" height="220" viewBox="0 0 700 220" fill="none" xmlns="http://www.w3.org/2000/svg">
  <defs>
    <linearGradient id="bg-gradient" x1="0%" y1="0%" x2="100%" y2="100%">
      <stop offset="0%" style="stop-color:#f8fafc"/>
      <stop offset="100%" style="stop-color:#f1f5f9"/>
    </linearGradient>
    <linearGradient id="globe-gradient" x1="20%" y1="20%" x2="80%" y2="80%">
      <stop offset="0%" style="stop-color:#60a5fa"/>
      <stop offset="100%" style="stop-color:#1d4ed8"/>
    </linearGradient>
    <linearGradient id="arrow-green" x1="0%" y1="0%" x2="100%" y2="100%">
      <stop offset="0%" style="stop-color:#86efac"/>
      <stop offset="100%" style="stop-color:#22c55e"/>
    </linearGradient>
    <linearGradient id="arrow-gray" x1="0%" y1="0%" x2="100%" y2="100%">
      <stop offset="0%" style="stop-color:#cbd5e1"/>
      <stop offset="100%" style="stop-color:#94a3b8"/>
    </linearGradient>
  </defs>

  <!-- Background -->
  <rect width="700" height="220" rx="16" fill="url(#bg-gradient)"/>
  <rect width="700" height="220" rx="16" stroke="#e2e8f0" stroke-width="1" fill="none"/>

  <!-- OECD Logo Section -->
  <g transform="translate(55, 62)">
    <!-- Globe -->
    <circle cx="48" cy="48" r="44" fill="url(#globe-gradient)"/>
    <!-- Globe lines - horizontal -->
    <ellipse cx="48" cy="48" rx="44" ry="16" fill="none" stroke="#93c5fd" stroke-width="1.5" opacity="0.7"/>
    <ellipse cx="48" cy="32" rx="36" ry="10" fill="none" stroke="#93c5fd" stroke-width="1" opacity="0.5"/>
    <ellipse cx="48" cy="64" rx="36" ry="10" fill="none" stroke="#93c5fd" stroke-width="1" opacity="0.5"/>
    <!-- Globe lines - vertical -->
    <ellipse cx="48" cy="48" rx="22" ry="44" fill="none" stroke="#93c5fd" stroke-width="1.5" opacity="0.7"/>
    <line x1="4" y1="48" x2="92" y2="48" stroke="#93c5fd" stroke-width="1" opacity="0.5"/>
    <!-- Continent shapes (simplified) -->
    <ellipse cx="38" cy="40" rx="14" ry="10" fill="#bfdbfe" opacity="0.4"/>
    <ellipse cx="60" cy="55" rx="12" ry="8" fill="#bfdbfe" opacity="0.4"/>

    <!-- Green Arrow (front) -->
    <path d="M105 28 L128 48 L105 68" fill="none" stroke="url(#arrow-green)" stroke-width="10" stroke-linecap="round" stroke-linejoin="round"/>
    <!-- Gray Arrow (back) -->
    <path d="M118 28 L141 48 L118 68" fill="none" stroke="url(#arrow-gray)" stroke-width="8" stroke-linecap="round" stroke-linejoin="round"/>

    <!-- OECD Text -->
    <text x="158" y="62" font-family="Arial, Helvetica, sans-serif" font-size="50" font-weight="600" fill="#64748b" letter-spacing="-1">OECD</text>
  </g>

  <!-- Connector Symbol -->
  <g transform="translate(345, 95)">
    <line x1="0" y1="15" x2="25" y2="15" stroke="#cbd5e1" stroke-width="2.5" stroke-linecap="round"/>
    <circle cx="37" cy="15" r="6" fill="none" stroke="#94a3b8" stroke-width="2"/>
    <line x1="49" y1="15" x2="74" y2="15" stroke="#cbd5e1" stroke-width="2.5" stroke-linecap="round"/>
  </g>

  <!-- MCP Section -->
  <g transform="translate(435, 62)">
    <!-- MCP Icon -->
    <g transform="translate(0, 6)">
      <svg width="48" height="48" viewBox="0 0 24 24" fill="#0f172a">
        <path fill-rule="evenodd" d="M15.688 2.343a2.588 2.588 0 00-3.61 0l-9.626 9.44a.863.863 0 01-1.203 0 .823.823 0 010-1.18l9.626-9.44a4.313 4.313 0 016.016 0 4.116 4.116 0 011.204 3.54 4.3 4.3 0 013.609 1.18l.05.05a4.115 4.115 0 010 5.9l-8.706 8.537a.274.274 0 000 .393l1.788 1.754a.823.823 0 010 1.18.863.863 0 01-1.203 0l-1.788-1.753a1.92 1.92 0 010-2.754l8.706-8.538a2.47 2.47 0 000-3.54l-.05-.049a2.588 2.588 0 00-3.607-.003l-7.172 7.034-.002.002-.098.097a.863.863 0 01-1.204 0 .823.823 0 010-1.18l7.273-7.133a2.47 2.47 0 00-.003-3.537z"/>
        <path d="M14.485 4.703a.823.823 0 000-1.18.863.863 0 00-1.204 0l-7.119 6.982a4.115 4.115 0 000 5.9 4.314 4.314 0 006.016 0l7.12-6.982a.823.823 0 000-1.18.863.863 0 00-1.204 0l-7.119 6.982a2.588 2.588 0 01-3.61 0 2.47 2.47 0 010-3.54l7.12-6.982z"/>
      </svg>
    </g>

    <!-- MCP Server Text -->
    <text x="58" y="42" font-family="Inter, Arial, sans-serif" font-size="32" font-weight="700" fill="#0f172a">MCP Server</text>

    <!-- Subtitle -->
    <text x="0" y="80" font-family="Inter, Arial, sans-serif" font-size="12" font-weight="500" fill="#64748b">5,000+ datasets • 38 OECD countries</text>
  </g>
</svg>
